<svg width="282" height="282" viewBox="0 0 282 282" fill="none" xmlns="http://www.w3.org/2000/svg">
<g filter="url(#filter0_d_1705_6281)">
<path d="M136.997 254.151C202.047 254.151 254.78 201.701 254.78 137C254.78 72.2999 202.047 19.85 136.997 19.85C71.9471 19.85 19.2136 72.2999 19.2136 137C19.2136 201.701 71.9471 254.151 136.997 254.151Z" fill="#1D1E1D"/>
<path d="M262 123.983C255.453 61.0645 201.991 12 136.997 12C72.0029 12 18.5469 61.0645 12 123.983H262Z" fill="#C5312A"/>
<path d="M12 150.017C18.5469 212.935 72.0089 262 136.997 262C201.985 262 255.453 212.935 261.994 150.017H12V150.017Z" fill="#E7E7E9"/>
<path d="M136.996 176.387C158.866 176.387 176.596 158.753 176.596 137C176.596 115.248 158.866 97.6137 136.996 97.6137C115.126 97.6137 97.3967 115.248 97.3967 137C97.3967 158.753 115.126 176.387 136.996 176.387Z" fill="#1D1E1D"/>
<path d="M165.757 148.381C172.074 132.589 164.324 114.694 148.447 108.411C132.57 102.128 114.578 109.836 108.261 125.628C101.944 141.42 109.694 159.315 125.571 165.598C141.448 171.881 159.44 164.172 165.757 148.381Z" fill="#F7F7F7"/>
<path d="M136.998 157.76C148.526 157.76 157.87 148.466 157.87 137.001C157.87 125.536 148.526 116.241 136.998 116.241C125.471 116.241 116.126 125.536 116.126 137.001C116.126 148.466 125.471 157.76 136.998 157.76Z" fill="#B8B5B5"/>
<path d="M136.998 156.232C147.676 156.232 156.333 147.622 156.333 137.001C156.333 126.381 147.676 117.771 136.998 117.771C126.32 117.771 117.664 126.381 117.664 137.001C117.664 147.622 126.32 156.232 136.998 156.232Z" fill="#F7F7F7"/>
</g>
<defs>
<filter id="filter0_d_1705_6281" x="0" y="0" width="282" height="282" filterUnits="userSpaceOnUse" color-interpolation-filters="sRGB">
<feFlood flood-opacity="0" result="BackgroundImageFix"/>
<feColorMatrix in="SourceAlpha" type="matrix" values="0 0 0 0 0 0 0 0 0 0 0 0 0 0 0 0 0 0 127 0" result="hardAlpha"/>
<feOffset dx="4" dy="4"/>
<feGaussianBlur stdDeviation="8"/>
<feColorMatrix type="matrix" values="0 0 0 0 0.00392157 0 0 0 0 0.109804 0 0 0 0 0.25098 0 0 0 0.2 0"/>
<feBlend mode="normal" in2="BackgroundImageFix" result="effect1_dropShadow_1705_6281"/>
<feBlend mode="normal" in="SourceGraphic" in2="effect1_dropShadow_1705_6281" result="shape"/>
</filter>
</defs>
</svg>
